<svg fill="none" height="128" viewBox="0 0 520 128" width="520" xmlns="http://www.w3.org/2000/svg"><g fill="#000"><path d="m448.262 105.84-15.015-44.0996c-.91-2.8-1.925-4.795-3.045-5.985-1.05-1.19-2.415-1.855-4.095-1.995l-2.1-.21v-3.15h25.515v3.15l-2.31.21c-2.03.21-3.465 1.05-4.305 2.52-.84 1.4-.91 3.22-.21 5.46l12.075 38.115h-1.995l13.65-41.475.42 9.03c-.84-3.36-1.645-6.02-2.415-7.98-.7-1.96-1.505-3.395-2.415-4.305s-2.135-1.4-3.675-1.47l-1.68-.105v-3.15h24.675v3.15l-2.415.21c-4.9.42-6.685 2.8-5.355 7.14l11.55 38.955h-2.1l12.18-38.115c.84-2.66.91-4.585.21-5.775-.63-1.19-2.205-1.925-4.725-2.205l-2.205-.21v-3.15h22.05v3.15c-2.94.42-5.145 1.225-6.615 2.415-1.4 1.12-2.59 3.045-3.57 5.775l-15.54 44.0996h-6.195l-12.285-40.1096 2.415-.105-14.385 40.2146z"/><path d="m392.78 106.05c-3.15 0-5.635-.49-7.455-1.47-1.75-1.05-3.01-2.345-3.78-3.885-.7-1.6104-1.05-3.2204-1.05-4.8304 0-2.38.84-4.76 2.52-7.14 1.75-2.45 4.585-4.9 8.505-7.35 3.99-2.45 9.345-4.865 16.065-7.245l2.625-.945.315-10.395c.07-2.59-.735-4.725-2.415-6.405-1.68-1.75-4.025-2.625-7.035-2.625-2.38 0-4.48.805-6.3 2.415s-3.115 4.13-3.885 7.56c-.14.7-.875 1.365-2.205 1.995-1.26.56-2.94.84-5.04.84-1.19 0-2.1-.14-2.73-.42s-.805-.91-.525-1.89c1.12-2.73 2.975-5.215 5.565-7.455s5.53-4.025 8.82-5.355c3.29-1.4 6.545-2.1 9.765-2.1 4.55 0 8.26 1.085 11.13 3.255 2.94 2.17 4.34 5.215 4.2 9.135l-1.05 32.025c-.07 2.73.595 4.48 1.995 5.25 1.47.77 4.235 1.2954 8.295 1.5754v2.415l-3.675.945c-2.24.7-4.025 1.155-5.355 1.365-1.26.28-2.24.42-2.94.42-1.89 0-3.325-.42-4.305-1.26-.91-.84-1.575-1.82-1.995-2.94-.35-1.12-.595-2.0304-.735-2.7304h-.84c-3.01 2.9404-5.845 4.9004-8.505 5.8804-2.59.91-5.25 1.365-7.98 1.365zm5.985-6.9304c2.52 0 4.585-.385 6.195-1.155 1.68-.84 3.185-1.715 4.515-2.625l.63-18.585-.84.315c-5.04 1.89-8.89 3.745-11.55 5.565s-4.48 3.57-5.46 5.25c-.91 1.68-1.365 3.22-1.365 4.62 0 4.41 2.625 6.615 7.875 6.615z"/><path d="m351.796 105v-3.15l3.15-.525c2.1-.35 3.5-.91 4.2-1.68.7-.84 1.05-2.345 1.05-4.515v-60.06c0-2.24-.49-3.815-1.47-4.725-.98-.98-3.22-1.68-6.72-2.1v-2.625l16.17-4.62h1.47v74.13c0 2.17.35 3.675 1.05 4.515.7.77 2.1 1.33 4.2 1.68l3.15.525v3.15z"/><path d="m294.768 106.05c-4.9 0-8.785-1.26-11.655-3.78-2.8-2.5204-4.2-6.0204-4.2-10.5004v-30.87c0-2.31-.525-3.92-1.575-4.83s-3.08-1.505-6.09-1.785v-2.625l15.33-2.1h1.785v39.06c0 2.59.42 4.69 1.26 6.3.91 1.61 2.275 2.835 4.095 3.675 1.89.77 4.235 1.155 7.035 1.155 2.66 0 5.04-.49 7.14-1.47s4.165-2.625 6.195-4.935v-32.445c0-2.31-.56-3.92-1.68-4.83-1.05-.91-3.22-1.505-6.51-1.785v-2.625l15.855-2.1h1.785v42.21c0 2.38.525 4.025 1.575 4.935 1.12.84 3.395 1.47 6.825 1.89v2.8354l-16.065 3.78h-1.47v-7.2454h-.63c-3.36 2.9404-6.475 5.0404-9.345 6.3004-2.8 1.19-6.02 1.785-9.66 1.785z"/><path d="m248.498 106.05c-2.66 0-5.495-.315-8.505-.945-2.94-.63-5.355-1.47-7.245-2.52v-14.1754h3.045c.77 4.9 2.45 8.435 5.04 10.605 2.66 2.1004 5.67 3.1504 9.03 3.1504 3.22 0 5.74-.84 7.56-2.5204 1.82-1.68 2.73-3.885 2.73-6.615 0-2.45-.735-4.34-2.205-5.67-1.4-1.4-3.325-2.73-5.775-3.99l-7.56-3.99c-4.48-2.38-7.455-4.76-8.925-7.14s-2.205-4.76-2.205-7.14c0-3.15.84-5.88 2.52-8.19 1.75-2.38 4.13-4.235 7.14-5.565s6.44-1.995 10.29-1.995c2.59 0 5.005.28 7.245.84 2.31.56 4.375 1.26 6.195 2.1v12.18h-3.045c-.42-2.03-1.12-3.885-2.1-5.565s-2.31-3.045-3.99-4.095c-1.61-1.05-3.675-1.575-6.195-1.575-3.15 0-5.565.805-7.245 2.415s-2.52 3.605-2.52 5.985c0 1.96.595 3.675 1.785 5.145 1.26 1.47 3.29 2.94 6.09 4.41l6.93 3.57c3.92 1.96 6.86 3.99 8.82 6.09 2.03 2.1 3.045 4.9 3.045 8.4 0 3.64-.945 6.72-2.835 9.24-1.89 2.4504-4.375 4.3404-7.455 5.6704-3.01 1.26-6.23 1.89-9.66 1.89z"/><path d="m206.225 106.05c-5.18 0-9.73-1.19-13.65-3.57-3.92-2.45-6.965-5.7404-9.135-9.8704-2.1-4.13-3.15-8.785-3.15-13.965 0-5.67 1.225-10.71 3.675-15.12 2.52-4.41 5.88-7.875 10.08-10.395s8.82-3.78 13.86-3.78c5.53 0 9.975 1.575 13.335 4.725s5.04 7.735 5.04 13.755v1.365c0 .42-.07 1.015-.21 1.785l-.21 1.47h-37.695v-3.99h27.72c.21-1.4.315-2.695.315-3.885 0-3.5-.91-6.23-2.73-8.19s-4.445-2.94-7.875-2.94c-4.69 0-8.505 1.855-11.445 5.565-2.87 3.71-4.305 8.68-4.305 14.91 0 4.69.84 8.925 2.52 12.705 1.75 3.71 4.2 6.65 7.35 8.82 3.22 2.1 7 3.15 11.34 3.15 2.45 0 4.83-.42 7.14-1.26s4.76-2.24 7.35-4.2l2.1 1.995c-3.36 3.85-6.755 6.6504-10.185 8.4004-3.43 1.68-7.175 2.52-11.235 2.52z"/><path d="m163.08 106.05c-4.34 0-7.805-1.12-10.395-3.36s-3.885-5.8799-3.885-10.9199v-35.07h-6.615v-3.15c5.46-3.01 9.8-7 13.02-11.97h3.15v8.61 3.045 35.7c0 2.73.455 4.795 1.365 6.195s2.135 2.345 3.675 2.835c1.61.42 3.325.63 5.145.63 2.38 0 4.445-.35 6.195-1.05s3.395-1.505 4.935-2.415l1.89 2.205c-2.17 2.24-4.795 4.2699-7.875 6.0899-3.08 1.75-6.615 2.625-10.605 2.625zm-9.345-49.3499v-6.3h26.565v1.575l-2.73 4.725z"/><path d="m67 87v-77l11.5 7.5v60h40.5l-7.5 9.5z"/><path d="m59 41v77l-11.5-7.5v-60h-40.5l7.5-9.5z"/></g></svg>